<svg width="512" height="512" viewBox="0 0 512 512" fill="none" xmlns="http://www.w3.org/2000/svg">
  <!-- Background Circle -->
  <circle cx="256" cy="256" r="240" fill="#007AFF" stroke="#0056CC" stroke-width="8"/>
  
  <!-- Inner Circle -->
  <circle cx="256" cy="256" r="180" fill="#34C759" stroke="#28A745" stroke-width="6"/>
  
  <!-- Project Management Icon - Calendar/Timeline -->
  <rect x="156" y="196" width="200" height="140" rx="20" fill="white" stroke="#007AFF" stroke-width="6"/>
  
  <!-- Calendar Grid -->
  <line x1="176" y1="230" x2="336" y2="230" stroke="#007AFF" stroke-width="4"/>
  <line x1="176" y1="270" x2="336" y2="270" stroke="#007AFF" stroke-width="4"/>
  <line x1="176" y1="310" x2="336" y2="310" stroke="#007AFF" stroke-width="4"/>
  
  <!-- Vertical lines for calendar -->
  <line x1="216" y1="196" x2="216" y2="336" stroke="#007AFF" stroke-width="4"/>
  <line x1="256" y1="196" x2="256" y2="336" stroke="#007AFF" stroke-width="4"/>
  <line x1="296" y1="196" x2="296" y2="336" stroke="#007AFF" stroke-width="4"/>
  
  <!-- Clock/Timer Icon -->
  <circle cx="256" cy="380" r="40" fill="white" stroke="#007AFF" stroke-width="6"/>
  <line x1="256" y1="380" x2="256" y2="350" stroke="#007AFF" stroke-width="4"/>
  <line x1="256" y1="380" x2="270" y2="380" stroke="#007AFF" stroke-width="4"/>
  
  <!-- Task Checkmark -->
  <path d="M120 120 L140 140 L200 80" stroke="white" stroke-width="12" stroke-linecap="round" stroke-linejoin="round"/>
  
  <!-- Project Dots -->
  <circle cx="380" cy="140" r="16" fill="white"/>
  <circle cx="400" cy="160" r="12" fill="white"/>
  <circle cx="390" cy="180" r="14" fill="white"/>
</svg>
