<svg width="200" height="200" viewBox="0 0 200 200" fill="none" xmlns="http://www.w3.org/2000/svg">
  <!-- Background Circle -->
  <circle cx="100" cy="100" r="95" fill="#007AFF" stroke="#0056CC" stroke-width="2"/>
  
  <!-- Inner Circle -->
  <circle cx="100" cy="100" r="75" fill="#34C759" stroke="#28A745" stroke-width="2"/>
  
  <!-- Project Management Icon - Calendar/Timeline -->
  <rect x="60" y="70" width="80" height="60" rx="8" fill="white" stroke="#007AFF" stroke-width="2"/>
  
  <!-- Calendar Grid -->
  <line x1="70" y1="85" x2="130" y2="85" stroke="#007AFF" stroke-width="2"/>
  <line x1="70" y1="100" x2="130" y2="100" stroke="#007AFF" stroke-width="2"/>
  <line x1="70" y1="115" x2="130" y2="115" stroke="#007AFF" stroke-width="2"/>
  
  <!-- Vertical lines for calendar -->
  <line x1="85" y1="70" x2="85" y2="130" stroke="#007AFF" stroke-width="2"/>
  <line x1="100" y1="70" x2="100" y2="130" stroke="#007AFF" stroke-width="2"/>
  <line x1="115" y1="70" x2="115" y2="130" stroke="#007AFF" stroke-width="2"/>
  
  <!-- Clock/Timer Icon -->
  <circle cx="100" cy="140" r="15" fill="white" stroke="#007AFF" stroke-width="2"/>
  <line x1="100" y1="140" x2="100" y2="130" stroke="#007AFF" stroke-width="2"/>
  <line x1="100" y1="140" x2="105" y2="140" stroke="#007AFF" stroke-width="2"/>
  
  <!-- Task Checkmark -->
  <path d="M45 45 L55 55 L75 35" stroke="white" stroke-width="4" stroke-linecap="round" stroke-linejoin="round"/>
  
  <!-- Project Dots -->
  <circle cx="150" cy="50" r="6" fill="white"/>
  <circle cx="160" cy="60" r="4" fill="white"/>
  <circle cx="155" cy="70" r="5" fill="white"/>
  
  <!-- App Name Text -->
  <text x="100" y="180" text-anchor="middle" font-family="Arial, sans-serif" font-size="16" font-weight="bold" fill="#007AFF">Project Manager</text>
</svg>
